<?xml version="1.0" encoding="UTF-8" standalone="no"?>
<!DOCTYPE svg PUBLIC "-//W3C//DTD SVG 1.1//EN"
 "http://www.w3.org/Graphics/SVG/1.1/DTD/svg11.dtd">
<!-- Generated by graphviz version 14.1.5 (20260411.2331)
 -->
<!-- Pages: 1 -->
<svg width="1243pt" height="2035pt"
 viewBox="0.00 0.00 1243.00 2035.00" xmlns="http://www.w3.org/2000/svg" xmlns:xlink="http://www.w3.org/1999/xlink">
<g id="graph0" class="graph" transform="scale(1 1) rotate(0) translate(4 2030.9)">
<polygon fill="white" stroke="none" points="-4,4 -4,-2030.9 1238.6,-2030.9 1238.6,4 -4,4"/>
<text xml:space="preserve" text-anchor="middle" x="617.3" y="-2009.6" font-family="Noto Sans CJK TC" font-size="14.00">小石開源力：知識探索核心循環</text>
<!-- ProfileBase -->
<g id="node1" class="node">
<title>ProfileBase</title>
<path fill="#d9ead3" stroke="#333333" d="M481.6,-463.6C481.6,-463.6 282.4,-463.6 282.4,-463.6 276.4,-463.6 270.4,-457.6 270.4,-451.6 270.4,-451.6 270.4,-379.9 270.4,-379.9 270.4,-373.9 276.4,-367.9 282.4,-367.9 282.4,-367.9 481.6,-367.9 481.6,-367.9 487.6,-367.9 493.6,-373.9 493.6,-379.9 493.6,-379.9 493.6,-451.6 493.6,-451.6 493.6,-457.6 487.6,-463.6 481.6,-463.6"/>
<text xml:space="preserve" text-anchor="middle" x="382" y="-424.9" font-family="Noto Sans CJK TC" font-size="18.00">基地主頁</text>
<text xml:space="preserve" text-anchor="middle" x="382" y="-398.65" font-family="Noto Sans CJK TC" font-size="18.00">小石、佈景、回顧展示</text>
</g>
<!-- Review -->
<g id="node14" class="node">
<title>Review</title>
<path fill="#efefef" stroke="#333333" d="M441.48,-267.65C441.48,-267.65 322.52,-267.65 322.52,-267.65 316.52,-267.65 310.52,-261.65 310.52,-255.65 310.52,-255.65 310.52,-195.95 310.52,-195.95 310.52,-189.95 316.52,-183.95 322.52,-183.95 322.52,-183.95 441.48,-183.95 441.48,-183.95 447.48,-183.95 453.48,-189.95 453.48,-195.95 453.48,-195.95 453.48,-255.65 453.48,-255.65 453.48,-261.65 447.48,-267.65 441.48,-267.65"/>
<text xml:space="preserve" text-anchor="middle" x="382" y="-232.75" font-family="Noto Sans CJK TC" font-size="14.00" fill="#3366cc">Day 5 活動回顧</text>
<text xml:space="preserve" text-anchor="middle" x="382" y="-212.5" font-family="Noto Sans CJK TC" font-size="14.00" fill="#3366cc">多類型成就結算</text>
</g>
<!-- ProfileBase&#45;&gt;Review -->
<g id="edge20" class="edge">
<title>ProfileBase&#45;&gt;Review</title>
<path fill="none" stroke="#333333" d="M382,-367.81C382,-340.26 382,-305.45 382,-277.31"/>
<polygon fill="#333333" stroke="#333333" points="384.8,-277.55 382,-269.55 379.2,-277.55 384.8,-277.55"/>
<text xml:space="preserve" text-anchor="middle" x="424.75" y="-314.6" font-family="Noto Sans CJK TC" font-size="14.00">累積回顧素材</text>
</g>
<!-- Inventory -->
<g id="node2" class="node">
<title>Inventory</title>
<path fill="#fce5cd" stroke="#333333" d="M552.98,-1078.9C552.98,-1078.9 377.02,-1078.9 377.02,-1078.9 371.02,-1078.9 365.02,-1072.9 365.02,-1066.9 365.02,-1066.9 365.02,-1007.2 365.02,-1007.2 365.02,-1001.2 371.02,-995.2 377.02,-995.2 377.02,-995.2 552.98,-995.2 552.98,-995.2 558.98,-995.2 564.98,-1001.2 564.98,-1007.2 564.98,-1007.2 564.98,-1066.9 564.98,-1066.9 564.98,-1072.9 558.98,-1078.9 552.98,-1078.9"/>
<text xml:space="preserve" text-anchor="middle" x="465" y="-1044" font-family="Noto Sans CJK TC" font-size="14.00">收藏背包</text>
<text xml:space="preserve" text-anchor="middle" x="465" y="-1023.75" font-family="Noto Sans CJK TC" font-size="14.00">開源力、道具、小石造型</text>
</g>
<!-- Craft -->
<g id="node8" class="node">
<title>Craft</title>
<path fill="#fff2cc" stroke="#333333" d="M525.23,-894.95C525.23,-894.95 404.77,-894.95 404.77,-894.95 398.77,-894.95 392.77,-888.95 392.77,-882.95 392.77,-882.95 392.77,-823.25 392.77,-823.25 392.77,-817.25 398.77,-811.25 404.77,-811.25 404.77,-811.25 525.23,-811.25 525.23,-811.25 531.23,-811.25 537.23,-817.25 537.23,-823.25 537.23,-823.25 537.23,-882.95 537.23,-882.95 537.23,-888.95 531.23,-894.95 525.23,-894.95"/>
<text xml:space="preserve" text-anchor="middle" x="465" y="-860.05" font-family="Noto Sans CJK TC" font-size="14.00">造型合成</text>
<text xml:space="preserve" text-anchor="middle" x="465" y="-839.8" font-family="Noto Sans CJK TC" font-size="14.00">小石 + 指定道具</text>
</g>
<!-- Inventory&#45;&gt;Craft -->
<g id="edge4" class="edge">
<title>Inventory&#45;&gt;Craft</title>
<path fill="none" stroke="#333333" d="M465,-994.76C465,-968.01 465,-932.99 465,-904.58"/>
<polygon fill="#333333" stroke="#333333" points="467.8,-904.74 465,-896.74 462.2,-904.74 467.8,-904.74"/>
<text xml:space="preserve" text-anchor="middle" x="493.5" y="-941.9" font-family="Noto Sans CJK TC" font-size="14.00">使用道具</text>
</g>
<!-- BaseTheme -->
<g id="node10" class="node">
<title>BaseTheme</title>
<path fill="#d9ead3" stroke="#333333" d="M778.35,-771.25C778.35,-771.25 673.65,-771.25 673.65,-771.25 667.65,-771.25 661.65,-765.25 661.65,-759.25 661.65,-759.25 661.65,-699.55 661.65,-699.55 661.65,-693.55 667.65,-687.55 673.65,-687.55 673.65,-687.55 778.35,-687.55 778.35,-687.55 784.35,-687.55 790.35,-693.55 790.35,-699.55 790.35,-699.55 790.35,-759.25 790.35,-759.25 790.35,-765.25 784.35,-771.25 778.35,-771.25"/>
<text xml:space="preserve" text-anchor="middle" x="726" y="-736.35" font-family="Noto Sans CJK TC" font-size="14.00">套用基地佈景</text>
<text xml:space="preserve" text-anchor="middle" x="726" y="-716.1" font-family="Noto Sans CJK TC" font-size="14.00">主頁就是基地</text>
</g>
<!-- Inventory&#45;&gt;BaseTheme -->
<g id="edge8" class="edge">
<title>Inventory&#45;&gt;BaseTheme</title>
<path fill="none" stroke="#333333" d="M501.27,-995.05C512.46,-982.32 524.78,-968.22 536,-955.2 588.08,-894.75 647.32,-824.41 685.6,-778.73"/>
<polygon fill="#333333" stroke="#333333" points="687.6,-780.71 690.59,-772.78 683.31,-777.11 687.6,-780.71"/>
<text xml:space="preserve" text-anchor="middle" x="579.3" y="-941.9" font-family="Noto Sans CJK TC" font-size="14.00">兌換佈景</text>
</g>
<!-- Inventory&#45;&gt;Review -->
<g id="edge21" class="edge">
<title>Inventory&#45;&gt;Review</title>
<path fill="none" stroke="#333333" d="M373.07,-994.86C353.62,-983.67 334.11,-970.38 318,-955.2 214.02,-857.26 240.59,-789.54 225,-647.55 211.41,-523.8 188.73,-480.89 241,-367.9 257.96,-331.25 288.72,-298.71 317.2,-274.14"/>
<polygon fill="#333333" stroke="#333333" points="318.92,-276.35 323.22,-269.04 315.31,-272.07 318.92,-276.35"/>
<text xml:space="preserve" text-anchor="middle" x="253.5" y="-602.53" font-family="Noto Sans CJK TC" font-size="14.00">收藏紀錄</text>
</g>
<!-- RealActions -->
<g id="node3" class="node">
<title>RealActions</title>
<path fill="#f4cccc" stroke="#333333" d="M1222.6,-1630.75C1222.6,-1630.75 975.4,-1630.75 975.4,-1630.75 969.4,-1630.75 963.4,-1624.75 963.4,-1618.75 963.4,-1618.75 963.4,-1559.05 963.4,-1559.05 963.4,-1553.05 969.4,-1547.05 975.4,-1547.05 975.4,-1547.05 1222.6,-1547.05 1222.6,-1547.05 1228.6,-1547.05 1234.6,-1553.05 1234.6,-1559.05 1234.6,-1559.05 1234.6,-1618.75 1234.6,-1618.75 1234.6,-1624.75 1228.6,-1630.75 1222.6,-1630.75"/>
<text xml:space="preserve" text-anchor="middle" x="1099" y="-1595.85" font-family="Noto Sans CJK TC" font-size="14.00" fill="#cc0000">營隊實際行為</text>
<text xml:space="preserve" text-anchor="middle" x="1099" y="-1575.6" font-family="Noto Sans CJK TC" font-size="14.00" fill="#cc0000">提問、互動、協助、解題、參與活動</text>
</g>
<!-- ActionReward -->
<g id="node4" class="node">
<title>ActionReward</title>
<path fill="#f4cccc" stroke="#333333" d="M1017.22,-1262.85C1017.22,-1262.85 812.77,-1262.85 812.77,-1262.85 806.77,-1262.85 800.77,-1256.85 800.77,-1250.85 800.77,-1250.85 800.77,-1191.15 800.77,-1191.15 800.77,-1185.15 806.77,-1179.15 812.77,-1179.15 812.77,-1179.15 1017.22,-1179.15 1017.22,-1179.15 1023.22,-1179.15 1029.22,-1185.15 1029.22,-1191.15 1029.22,-1191.15 1029.22,-1250.85 1029.22,-1250.85 1029.22,-1256.85 1023.22,-1262.85 1017.22,-1262.85"/>
<text xml:space="preserve" text-anchor="middle" x="915" y="-1227.95" font-family="Noto Sans CJK TC" font-size="14.00">取得對應小石</text>
<text xml:space="preserve" text-anchor="middle" x="915" y="-1207.7" font-family="Noto Sans CJK TC" font-size="14.00">開源力、造型道具、基地佈景</text>
</g>
<!-- RealActions&#45;&gt;ActionReward -->
<g id="edge1" class="edge">
<title>RealActions&#45;&gt;ActionReward</title>
<path fill="none" stroke="#333333" d="M1078.25,-1546.64C1044.13,-1478.79 976.33,-1343.96 939.76,-1271.24"/>
<polygon fill="#333333" stroke="#333333" points="942.45,-1270.35 936.35,-1264.46 937.45,-1272.87 942.45,-1270.35"/>
<text xml:space="preserve" text-anchor="middle" x="1046.67" y="-1401.77" font-family="Noto Sans CJK TC" font-size="14.00">完成後</text>
</g>
<!-- WorldBoss -->
<g id="node12" class="node">
<title>WorldBoss</title>
<path fill="#eadcf8" stroke="#333333" d="M809.35,-1446.8C809.35,-1446.8 704.65,-1446.8 704.65,-1446.8 698.65,-1446.8 692.65,-1440.8 692.65,-1434.8 692.65,-1434.8 692.65,-1375.1 692.65,-1375.1 692.65,-1369.1 698.65,-1363.1 704.65,-1363.1 704.65,-1363.1 809.35,-1363.1 809.35,-1363.1 815.35,-1363.1 821.35,-1369.1 821.35,-1375.1 821.35,-1375.1 821.35,-1434.8 821.35,-1434.8 821.35,-1440.8 815.35,-1446.8 809.35,-1446.8"/>
<text xml:space="preserve" text-anchor="middle" x="757" y="-1411.9" font-family="Noto Sans CJK TC" font-size="14.00" fill="#3366cc">全營世界魔王</text>
<text xml:space="preserve" text-anchor="middle" x="757" y="-1391.65" font-family="Noto Sans CJK TC" font-size="14.00" fill="#3366cc">共同推進階段</text>
</g>
<!-- RealActions&#45;&gt;WorldBoss -->
<g id="edge16" class="edge">
<title>RealActions&#45;&gt;WorldBoss</title>
<path fill="none" stroke="#333333" d="M1021.39,-1546.61C963.92,-1516.03 886.13,-1474.65 829.82,-1444.69"/>
<polygon fill="#333333" stroke="#333333" points="831.39,-1442.35 823.01,-1441.07 828.76,-1447.3 831.39,-1442.35"/>
<text xml:space="preserve" text-anchor="middle" x="966.75" y="-1493.75" font-family="Noto Sans CJK TC" font-size="14.00">任務貢獻</text>
</g>
<!-- ActionReward&#45;&gt;ProfileBase -->
<g id="edge3" class="edge">
<title>ActionReward&#45;&gt;ProfileBase</title>
<path fill="none" stroke="#333333" d="M912.72,-1178.69C909.04,-1093.54 905.68,-892.83 944,-730.4"/>
<text xml:space="preserve" text-anchor="middle" x="956.66" y="-849.93" font-family="Noto Sans CJK TC" font-size="14.00">更新展示</text>
</g>
<!-- ActionReward&#45;&gt;Inventory -->
<g id="edge2" class="edge">
<title>ActionReward&#45;&gt;Inventory</title>
<path fill="none" stroke="#333333" d="M812.89,-1178.71C741.62,-1149.9 646.63,-1111.49 573.91,-1082.09"/>
<polygon fill="#333333" stroke="#333333" points="575.03,-1079.52 566.56,-1079.11 572.93,-1084.71 575.03,-1079.52"/>
<text xml:space="preserve" text-anchor="middle" x="731.99" y="-1125.85" font-family="Noto Sans CJK TC" font-size="14.00">加入收藏</text>
</g>
<!-- Quiz -->
<g id="node5" class="node">
<title>Quiz</title>
<path fill="#d9eaf7" stroke="#333333" d="M339.85,-1998.65C339.85,-1998.65 184.15,-1998.65 184.15,-1998.65 178.15,-1998.65 172.15,-1992.65 172.15,-1986.65 172.15,-1986.65 172.15,-1926.95 172.15,-1926.95 172.15,-1920.95 178.15,-1914.95 184.15,-1914.95 184.15,-1914.95 339.85,-1914.95 339.85,-1914.95 345.85,-1914.95 351.85,-1920.95 351.85,-1926.95 351.85,-1926.95 351.85,-1986.65 351.85,-1986.65 351.85,-1992.65 345.85,-1998.65 339.85,-1998.65"/>
<text xml:space="preserve" text-anchor="middle" x="262" y="-1963.75" font-family="Noto Sans CJK TC" font-size="14.00" fill="#1c4587">知識王</text>
<text xml:space="preserve" text-anchor="middle" x="262" y="-1943.5" font-family="Noto Sans CJK TC" font-size="14.00" fill="#1c4587">CP 訂正、面對面對戰</text>
</g>
<!-- Explanation -->
<g id="node6" class="node">
<title>Explanation</title>
<path fill="#d9eaf7" stroke="#333333" d="M314.35,-1814.7C314.35,-1814.7 209.65,-1814.7 209.65,-1814.7 203.65,-1814.7 197.65,-1808.7 197.65,-1802.7 197.65,-1802.7 197.65,-1743 197.65,-1743 197.65,-1737 203.65,-1731 209.65,-1731 209.65,-1731 314.35,-1731 314.35,-1731 320.35,-1731 326.35,-1737 326.35,-1743 326.35,-1743 326.35,-1802.7 326.35,-1802.7 326.35,-1808.7 320.35,-1814.7 314.35,-1814.7"/>
<text xml:space="preserve" text-anchor="middle" x="262" y="-1779.8" font-family="Noto Sans CJK TC" font-size="14.00">看解析</text>
<text xml:space="preserve" text-anchor="middle" x="262" y="-1759.55" font-family="Noto Sans CJK TC" font-size="14.00">答錯進訂正區</text>
</g>
<!-- Quiz&#45;&gt;Explanation -->
<g id="edge10" class="edge">
<title>Quiz&#45;&gt;Explanation</title>
<path fill="none" stroke="#333333" d="M262,-1914.51C262,-1887.76 262,-1852.74 262,-1824.33"/>
<polygon fill="#333333" stroke="#333333" points="264.8,-1824.49 262,-1816.49 259.2,-1824.49 264.8,-1824.49"/>
<text xml:space="preserve" text-anchor="middle" x="283.38" y="-1861.65" font-family="Noto Sans CJK TC" font-size="14.00">作答後</text>
</g>
<!-- QuizReward -->
<g id="node7" class="node">
<title>QuizReward</title>
<path fill="#d9eaf7" stroke="#333333" d="M335.73,-1630.75C335.73,-1630.75 188.28,-1630.75 188.28,-1630.75 182.28,-1630.75 176.28,-1624.75 176.28,-1618.75 176.28,-1618.75 176.28,-1559.05 176.28,-1559.05 176.28,-1553.05 182.28,-1547.05 188.28,-1547.05 188.28,-1547.05 335.73,-1547.05 335.73,-1547.05 341.73,-1547.05 347.73,-1553.05 347.73,-1559.05 347.73,-1559.05 347.73,-1618.75 347.73,-1618.75 347.73,-1624.75 341.73,-1630.75 335.73,-1630.75"/>
<text xml:space="preserve" text-anchor="middle" x="262" y="-1595.85" font-family="Noto Sans CJK TC" font-size="14.00">題組紀錄</text>
<text xml:space="preserve" text-anchor="middle" x="262" y="-1575.6" font-family="Noto Sans CJK TC" font-size="14.00">開源力、道具、小石</text>
</g>
<!-- Explanation&#45;&gt;QuizReward -->
<g id="edge11" class="edge">
<title>Explanation&#45;&gt;QuizReward</title>
<path fill="none" stroke="#333333" d="M262,-1730.56C262,-1703.81 262,-1668.79 262,-1640.38"/>
<polygon fill="#333333" stroke="#333333" points="264.8,-1640.54 262,-1632.54 259.2,-1640.54 264.8,-1640.54"/>
<text xml:space="preserve" text-anchor="middle" x="311.88" y="-1677.7" font-family="Noto Sans CJK TC" font-size="14.00">答對或完成訂正</text>
</g>
<!-- QuizReward&#45;&gt;ProfileBase -->
<g id="edge13" class="edge">
<title>QuizReward&#45;&gt;ProfileBase</title>
<path fill="none" stroke="#333333" d="M212.56,-1546.83C176.95,-1513.34 132.71,-1462.48 118,-1405.95"/>
<path fill="none" stroke="#333333" d="M118,-1403.95C54.87,-1287.39 0,-1262.58 0,-1130.03 0,-1130.03 0,-1130.03 0,-604.7 0,-486.62 148.77,-442.72 260.63,-426.4"/>
<polygon fill="#333333" stroke="#333333" points="260.94,-429.19 268.47,-425.3 260.16,-423.64 260.94,-429.19"/>
<text xml:space="preserve" text-anchor="middle" x="28.5" y="-1033.88" font-family="Noto Sans CJK TC" font-size="14.00">留下紀錄</text>
</g>
<!-- QuizReward&#45;&gt;Inventory -->
<g id="edge12" class="edge">
<title>QuizReward&#45;&gt;Inventory</title>
<path fill="none" stroke="#333333" d="M118,-1403.95C79.12,-1258.59 248.86,-1143.48 364.62,-1083.53"/>
<polygon fill="#333333" stroke="#333333" points="365.66,-1086.14 371.51,-1080 363.11,-1081.15 365.66,-1086.14"/>
<text xml:space="preserve" text-anchor="middle" x="149.8" y="-1309.8" font-family="Noto Sans CJK TC" font-size="14.00">取得獎勵</text>
</g>
<!-- QuizReward&#45;&gt;WorldBoss -->
<g id="edge15" class="edge">
<title>QuizReward&#45;&gt;WorldBoss</title>
<path fill="none" stroke="#333333" d="M348.22,-1556.21C443.12,-1521.33 594.04,-1465.85 683.52,-1432.96"/>
<polygon fill="#333333" stroke="#333333" points="684.29,-1435.66 690.84,-1430.27 682.36,-1430.4 684.29,-1435.66"/>
<text xml:space="preserve" text-anchor="middle" x="567.09" y="-1493.75" font-family="Noto Sans CJK TC" font-size="14.00">推進共同進度</text>
</g>
<!-- NewStyle -->
<g id="node9" class="node">
<title>NewStyle</title>
<path fill="#fff2cc" stroke="#333333" d="M441.48,-647.55C441.48,-647.55 322.52,-647.55 322.52,-647.55 316.52,-647.55 310.52,-641.55 310.52,-635.55 310.52,-635.55 310.52,-575.85 310.52,-575.85 310.52,-569.85 316.52,-563.85 322.52,-563.85 322.52,-563.85 441.48,-563.85 441.48,-563.85 447.48,-563.85 453.48,-569.85 453.48,-575.85 453.48,-575.85 453.48,-635.55 453.48,-635.55 453.48,-641.55 447.48,-647.55 441.48,-647.55"/>
<text xml:space="preserve" text-anchor="middle" x="382" y="-612.65" font-family="Noto Sans CJK TC" font-size="14.00">新造型小石</text>
<text xml:space="preserve" text-anchor="middle" x="382" y="-592.4" font-family="Noto Sans CJK TC" font-size="14.00">行為紀念與展示</text>
</g>
<!-- Craft&#45;&gt;NewStyle -->
<g id="edge5" class="edge">
<title>Craft&#45;&gt;NewStyle</title>
<path fill="none" stroke="#333333" d="M451.11,-811.03C436.74,-768.56 414.3,-702.21 398.92,-656.72"/>
<polygon fill="#333333" stroke="#333333" points="401.64,-656.02 396.42,-649.34 396.33,-657.82 401.64,-656.02"/>
<text xml:space="preserve" text-anchor="middle" x="450.03" y="-726.23" font-family="Noto Sans CJK TC" font-size="14.00">合成</text>
</g>
<!-- NewStyle&#45;&gt;ProfileBase -->
<g id="edge7" class="edge">
<title>NewStyle&#45;&gt;ProfileBase</title>
<path fill="none" stroke="#333333" d="M382,-563.45C382,-536.93 382,-502.13 382,-473.07"/>
<polygon fill="#333333" stroke="#333333" points="384.8,-473.37 382,-465.37 379.2,-473.37 384.8,-473.37"/>
<text xml:space="preserve" text-anchor="middle" x="396.25" y="-510.55" font-family="Noto Sans CJK TC" font-size="14.00">展示</text>
</g>
<!-- NewStyle&#45;&gt;Inventory -->
<g id="edge6" class="edge">
<title>NewStyle&#45;&gt;Inventory</title>
<path fill="none" stroke="#333333" d="M354.59,-647.76C320.06,-705 269.5,-811.18 307,-894.95 324.11,-933.17 357.26,-965.31 388.8,-989.21"/>
<polygon fill="#333333" stroke="#333333" points="387.03,-991.39 395.12,-993.9 390.36,-986.89 387.03,-991.39"/>
<text xml:space="preserve" text-anchor="middle" x="335.5" y="-849.93" font-family="Noto Sans CJK TC" font-size="14.00">加入背包</text>
</g>
<!-- BaseTheme&#45;&gt;ProfileBase -->
<g id="edge9" class="edge">
<title>BaseTheme&#45;&gt;ProfileBase</title>
<path fill="none" stroke="#333333" d="M886,-512.73C838.64,-454.96 637,-431.69 503.56,-422.51"/>
<polygon fill="#333333" stroke="#333333" points="503.76,-419.72 495.59,-421.97 503.38,-425.3 503.76,-419.72"/>
<path fill="none" stroke="#333333" d="M763.43,-687.35C814.75,-629.94 899.22,-530.85 886,-514.73"/>
<text xml:space="preserve" text-anchor="middle" x="877.83" y="-602.53" font-family="Noto Sans CJK TC" font-size="14.00">套用</text>
</g>
<!-- DailyCourse -->
<g id="node11" class="node">
<title>DailyCourse</title>
<path fill="#eadcf8" stroke="#333333" d="M809.35,-1630.75C809.35,-1630.75 704.65,-1630.75 704.65,-1630.75 698.65,-1630.75 692.65,-1624.75 692.65,-1618.75 692.65,-1618.75 692.65,-1559.05 692.65,-1559.05 692.65,-1553.05 698.65,-1547.05 704.65,-1547.05 704.65,-1547.05 809.35,-1547.05 809.35,-1547.05 815.35,-1547.05 821.35,-1553.05 821.35,-1559.05 821.35,-1559.05 821.35,-1618.75 821.35,-1618.75 821.35,-1624.75 815.35,-1630.75 809.35,-1630.75"/>
<text xml:space="preserve" text-anchor="middle" x="757" y="-1595.85" font-family="Noto Sans CJK TC" font-size="14.00">當天課程內容</text>
<text xml:space="preserve" text-anchor="middle" x="757" y="-1575.6" font-family="Noto Sans CJK TC" font-size="14.00">形成魔王題組</text>
</g>
<!-- DailyCourse&#45;&gt;WorldBoss -->
<g id="edge14" class="edge">
<title>DailyCourse&#45;&gt;WorldBoss</title>
<path fill="none" stroke="#333333" d="M757,-1546.61C757,-1519.86 757,-1484.84 757,-1456.43"/>
<polygon fill="#333333" stroke="#333333" points="759.8,-1456.59 757,-1448.59 754.2,-1456.59 759.8,-1456.59"/>
<text xml:space="preserve" text-anchor="middle" x="785.5" y="-1493.75" font-family="Noto Sans CJK TC" font-size="14.00">每日題組</text>
</g>
<!-- BossClear -->
<g id="node13" class="node">
<title>BossClear</title>
<path fill="#eadcf8" stroke="#333333" d="M731.23,-1262.85C731.23,-1262.85 526.77,-1262.85 526.77,-1262.85 520.77,-1262.85 514.77,-1256.85 514.77,-1250.85 514.77,-1250.85 514.77,-1191.15 514.77,-1191.15 514.77,-1185.15 520.77,-1179.15 526.77,-1179.15 526.77,-1179.15 731.23,-1179.15 731.23,-1179.15 737.23,-1179.15 743.23,-1185.15 743.23,-1191.15 743.23,-1191.15 743.23,-1250.85 743.23,-1250.85 743.23,-1256.85 737.23,-1262.85 731.23,-1262.85"/>
<text xml:space="preserve" text-anchor="middle" x="629" y="-1227.95" font-family="Noto Sans CJK TC" font-size="14.00" fill="#3366cc">共鬥勝利</text>
<text xml:space="preserve" text-anchor="middle" x="629" y="-1207.7" font-family="Noto Sans CJK TC" font-size="14.00" fill="#3366cc">全體參與者獲得限定造型小石</text>
</g>
<!-- WorldBoss&#45;&gt;BossClear -->
<g id="edge17" class="edge">
<title>WorldBoss&#45;&gt;BossClear</title>
<path fill="none" stroke="#333333" d="M727.95,-1362.66C708.73,-1335.33 683.42,-1299.36 663.22,-1270.64"/>
<polygon fill="#333333" stroke="#333333" points="665.69,-1269.29 658.8,-1264.36 661.11,-1272.52 665.69,-1269.29"/>
<text xml:space="preserve" text-anchor="middle" x="725.34" y="-1309.8" font-family="Noto Sans CJK TC" font-size="14.00">階段擊破</text>
</g>
<!-- WorldBoss&#45;&gt;Review -->
<g id="edge22" class="edge">
<title>WorldBoss&#45;&gt;Review</title>
<path fill="none" stroke="#333333" d="M821.78,-1385.57C925.42,-1354.2 1117,-1287.39 1117,-1222 1117,-1222 1117,-1222 1117,-414.75 1117,-281.02 654.51,-241.18 463.26,-230.43"/>
<polygon fill="#333333" stroke="#333333" points="463.47,-227.64 455.32,-229.99 463.16,-233.23 463.47,-227.64"/>
<text xml:space="preserve" text-anchor="middle" x="1145.5" y="-849.93" font-family="Noto Sans CJK TC" font-size="14.00">參與階段</text>
</g>
<!-- BossClear&#45;&gt;ProfileBase -->
<g id="edge19" class="edge">
<title>BossClear&#45;&gt;ProfileBase</title>
<path fill="none" stroke="#333333" d="M639.16,-1178.8C660.36,-1099.75 715.77,-924.62 815,-811.25 859.56,-760.34 923.67,-794.94 944,-730.4"/>
<path fill="none" stroke="#333333" d="M944,-728.4C967.42,-632.82 955.55,-584.34 886,-514.73"/>
<text xml:space="preserve" text-anchor="middle" x="843.5" y="-849.93" font-family="Noto Sans CJK TC" font-size="14.00">魔王紀念</text>
</g>
<!-- BossClear&#45;&gt;Inventory -->
<g id="edge18" class="edge">
<title>BossClear&#45;&gt;Inventory</title>
<path fill="none" stroke="#333333" d="M591.79,-1178.71C566.94,-1151.15 534.18,-1114.8 508.18,-1085.96"/>
<polygon fill="#333333" stroke="#333333" points="510.52,-1084.37 503.08,-1080.3 506.36,-1088.12 510.52,-1084.37"/>
<text xml:space="preserve" text-anchor="middle" x="580.42" y="-1125.85" font-family="Noto Sans CJK TC" font-size="14.00">限定造型</text>
</g>
<!-- Awards -->
<g id="node15" class="node">
<title>Awards</title>
<path fill="#efefef" stroke="#333333" d="M491.35,-83.7C491.35,-83.7 272.65,-83.7 272.65,-83.7 266.65,-83.7 260.65,-77.7 260.65,-71.7 260.65,-71.7 260.65,-12 260.65,-12 260.65,-6 266.65,0 272.65,0 272.65,0 491.35,0 491.35,0 497.35,0 503.35,-6 503.35,-12 503.35,-12 503.35,-71.7 503.35,-71.7 503.35,-77.7 497.35,-83.7 491.35,-83.7"/>
<text xml:space="preserve" text-anchor="middle" x="382" y="-48.8" font-family="Noto Sans CJK TC" font-size="14.00">實體獎勵與紀念</text>
<text xml:space="preserve" text-anchor="middle" x="382" y="-28.55" font-family="Noto Sans CJK TC" font-size="14.00">知識、訂正、合作、探索、收藏</text>
</g>
<!-- Review&#45;&gt;Awards -->
<g id="edge23" class="edge">
<title>Review&#45;&gt;Awards</title>
<path fill="none" stroke="#333333" d="M382,-183.51C382,-156.76 382,-121.74 382,-93.33"/>
<polygon fill="#333333" stroke="#333333" points="384.8,-93.49 382,-85.49 379.2,-93.49 384.8,-93.49"/>
<text xml:space="preserve" text-anchor="middle" x="415.75" y="-130.65" font-family="Noto Sans CJK TC" font-size="14.00">Day 5 結算</text>
</g>
</g>
</svg>
