<?xml version="1.0" encoding="UTF-8" standalone="no"?>
<!DOCTYPE svg PUBLIC "-//W3C//DTD SVG 1.1//EN"
 "http://www.w3.org/Graphics/SVG/1.1/DTD/svg11.dtd">
<!-- Generated by graphviz version 14.1.5 (20260411.2331)
 -->
<!-- Pages: 1 -->
<svg width="1166pt" height="1215pt"
 viewBox="0.00 0.00 1166.00 1215.00" xmlns="http://www.w3.org/2000/svg" xmlns:xlink="http://www.w3.org/1999/xlink">
<g id="graph0" class="graph" transform="scale(1 1) rotate(0) translate(4 1211.4)">
<polygon fill="white" stroke="none" points="-4,4 -4,-1211.4 1162.1,-1211.4 1162.1,4 -4,4"/>
<text xml:space="preserve" text-anchor="middle" x="579.05" y="-1190.1" font-family="Noto Sans CJK TC" font-size="14.00">小石開源力：核心遊戲循環</text>
<!-- Bag -->
<g id="node1" class="node">
<title>Bag</title>
<path fill="#fce5cd" stroke="#333333" d="M740.7,-811.25C740.7,-811.25 541.5,-811.25 541.5,-811.25 535.5,-811.25 529.5,-805.25 529.5,-799.25 529.5,-799.25 529.5,-727.55 529.5,-727.55 529.5,-721.55 535.5,-715.55 541.5,-715.55 541.5,-715.55 740.7,-715.55 740.7,-715.55 746.7,-715.55 752.7,-721.55 752.7,-727.55 752.7,-727.55 752.7,-799.25 752.7,-799.25 752.7,-805.25 746.7,-811.25 740.7,-811.25"/>
<text xml:space="preserve" text-anchor="middle" x="641.1" y="-772.55" font-family="Noto Sans CJK TC" font-size="18.00">背包中的小石</text>
<text xml:space="preserve" text-anchor="middle" x="641.1" y="-746.3" font-family="Noto Sans CJK TC" font-size="18.00">持有小石、素材、道具</text>
</g>
<!-- TeamPower -->
<g id="node4" class="node">
<title>TeamPower</title>
<path fill="#d9ead3" stroke="#333333" d="M184.58,-615.3C184.58,-615.3 65.63,-615.3 65.63,-615.3 59.63,-615.3 53.63,-609.3 53.63,-603.3 53.63,-603.3 53.63,-563.85 53.63,-563.85 53.63,-557.85 59.63,-551.85 65.63,-551.85 65.63,-551.85 184.58,-551.85 184.58,-551.85 190.58,-551.85 196.58,-557.85 196.58,-563.85 196.58,-563.85 196.58,-603.3 196.58,-603.3 196.58,-609.3 190.58,-615.3 184.58,-615.3"/>
<text xml:space="preserve" text-anchor="middle" x="125.1" y="-580.4" font-family="Noto Sans CJK TC" font-size="14.00">貢獻小隊開源力</text>
</g>
<!-- Bag&#45;&gt;TeamPower -->
<g id="edge3" class="edge">
<title>Bag&#45;&gt;TeamPower</title>
<path fill="none" stroke="#333333" d="M529.14,-779C377.38,-779 125.1,-779 125.1,-779 125.1,-779 125.1,-624.92 125.1,-624.92"/>
<polygon fill="#333333" stroke="#333333" points="127.9,-624.92 125.1,-616.92 122.3,-624.92 127.9,-624.92"/>
<text xml:space="preserve" text-anchor="middle" x="196.6" y="-662.25" font-family="Noto Sans CJK TC" font-size="14.00">投入資源</text>
</g>
<!-- BossDispatch -->
<g id="node6" class="node">
<title>BossDispatch</title>
<path fill="#eadcf8" stroke="#333333" d="M569.45,-615.3C569.45,-615.3 464.75,-615.3 464.75,-615.3 458.75,-615.3 452.75,-609.3 452.75,-603.3 452.75,-603.3 452.75,-563.85 452.75,-563.85 452.75,-557.85 458.75,-551.85 464.75,-551.85 464.75,-551.85 569.45,-551.85 569.45,-551.85 575.45,-551.85 581.45,-557.85 581.45,-563.85 581.45,-563.85 581.45,-603.3 581.45,-603.3 581.45,-609.3 575.45,-615.3 569.45,-615.3"/>
<text xml:space="preserve" text-anchor="middle" x="517.1" y="-580.4" font-family="Noto Sans CJK TC" font-size="14.00">組隊派遣小石</text>
</g>
<!-- Bag&#45;&gt;BossDispatch -->
<g id="edge5" class="edge">
<title>Bag&#45;&gt;BossDispatch</title>
<path fill="none" stroke="#333333" d="M555.48,-715.21C555.48,-715.21 555.48,-625.23 555.48,-625.23"/>
<polygon fill="#333333" stroke="#333333" points="558.28,-625.23 555.48,-617.23 552.68,-625.23 558.28,-625.23"/>
<text xml:space="preserve" text-anchor="middle" x="584.6" y="-662.25" font-family="Noto Sans CJK TC" font-size="14.00">派遣小石</text>
</g>
<!-- ClearGoal -->
<g id="node10" class="node">
<title>ClearGoal</title>
<path fill="#efefef" stroke="#333333" d="M874.2,-615.3C874.2,-615.3 798,-615.3 798,-615.3 792,-615.3 786,-609.3 786,-603.3 786,-603.3 786,-563.85 786,-563.85 786,-557.85 792,-551.85 798,-551.85 798,-551.85 874.2,-551.85 874.2,-551.85 880.2,-551.85 886.2,-557.85 886.2,-563.85 886.2,-563.85 886.2,-603.3 886.2,-603.3 886.2,-609.3 880.2,-615.3 874.2,-615.3"/>
<text xml:space="preserve" text-anchor="middle" x="836.1" y="-580.4" font-family="Noto Sans CJK TC" font-size="14.00" fill="#3366cc">集滿破台</text>
</g>
<!-- Bag&#45;&gt;ClearGoal -->
<g id="edge11" class="edge">
<title>Bag&#45;&gt;ClearGoal</title>
<path fill="none" stroke="#333333" d="M739.12,-715.32C739.12,-662.18 739.12,-584 739.12,-584 739.12,-584 776.11,-584 776.11,-584"/>
<polygon fill="#333333" stroke="#333333" points="776.11,-586.8 784.11,-584 776.11,-581.2 776.11,-586.8"/>
<text xml:space="preserve" text-anchor="middle" x="832.6" y="-662.25" font-family="Noto Sans CJK TC" font-size="14.00">完成圖鑑</text>
</g>
<!-- RealTask -->
<g id="node2" class="node">
<title>RealTask</title>
<path fill="#f4cccc" stroke="#333333" d="M736.2,-1179.15C736.2,-1179.15 546,-1179.15 546,-1179.15 540,-1179.15 534,-1173.15 534,-1167.15 534,-1167.15 534,-1107.45 534,-1107.45 534,-1101.45 540,-1095.45 546,-1095.45 546,-1095.45 736.2,-1095.45 736.2,-1095.45 742.2,-1095.45 748.2,-1101.45 748.2,-1107.45 748.2,-1107.45 748.2,-1167.15 748.2,-1167.15 748.2,-1173.15 742.2,-1179.15 736.2,-1179.15"/>
<text xml:space="preserve" text-anchor="middle" x="641.1" y="-1144.25" font-family="Noto Sans CJK TC" font-size="14.00" fill="#cc0000">完成營隊實體任務</text>
<text xml:space="preserve" text-anchor="middle" x="641.1" y="-1124" font-family="Noto Sans CJK TC" font-size="14.00" fill="#cc0000">攤位、互動、完成回饋表單</text>
</g>
<!-- RealReward -->
<g id="node3" class="node">
<title>RealReward</title>
<path fill="#f4cccc" stroke="#333333" d="M693.45,-995.2C693.45,-995.2 588.75,-995.2 588.75,-995.2 582.75,-995.2 576.75,-989.2 576.75,-983.2 576.75,-983.2 576.75,-923.5 576.75,-923.5 576.75,-917.5 582.75,-911.5 588.75,-911.5 588.75,-911.5 693.45,-911.5 693.45,-911.5 699.45,-911.5 705.45,-917.5 705.45,-923.5 705.45,-923.5 705.45,-983.2 705.45,-983.2 705.45,-989.2 699.45,-995.2 693.45,-995.2"/>
<text xml:space="preserve" text-anchor="middle" x="641.1" y="-960.3" font-family="Noto Sans CJK TC" font-size="14.00">贈送素材</text>
<text xml:space="preserve" text-anchor="middle" x="641.1" y="-940.05" font-family="Noto Sans CJK TC" font-size="14.00">特殊用途小石</text>
</g>
<!-- RealTask&#45;&gt;RealReward -->
<g id="edge1" class="edge">
<title>RealTask&#45;&gt;RealReward</title>
<path fill="none" stroke="#333333" d="M641.1,-1095.1C641.1,-1095.1 641.1,-1005.19 641.1,-1005.19"/>
<polygon fill="#333333" stroke="#333333" points="643.9,-1005.19 641.1,-997.19 638.3,-1005.19 643.9,-1005.19"/>
<text xml:space="preserve" text-anchor="middle" x="662.48" y="-1042.15" font-family="Noto Sans CJK TC" font-size="14.00">完成後</text>
</g>
<!-- RealReward&#45;&gt;Bag -->
<g id="edge2" class="edge">
<title>RealReward&#45;&gt;Bag</title>
<path fill="none" stroke="#333333" d="M641.1,-911.19C641.1,-911.19 641.1,-820.98 641.1,-820.98"/>
<polygon fill="#333333" stroke="#333333" points="643.9,-820.98 641.1,-812.98 638.3,-820.98 643.9,-820.98"/>
<text xml:space="preserve" text-anchor="middle" x="669.6" y="-858.2" font-family="Noto Sans CJK TC" font-size="14.00">加入背包</text>
</g>
<!-- TeamBuff -->
<g id="node5" class="node">
<title>TeamBuff</title>
<path fill="#d9ead3" stroke="#333333" d="M202.2,-451.6C202.2,-451.6 12,-451.6 12,-451.6 6,-451.6 0,-445.6 0,-439.6 0,-439.6 0,-379.9 0,-379.9 0,-373.9 6,-367.9 12,-367.9 12,-367.9 202.2,-367.9 202.2,-367.9 208.2,-367.9 214.2,-373.9 214.2,-379.9 214.2,-379.9 214.2,-439.6 214.2,-439.6 214.2,-445.6 208.2,-451.6 202.2,-451.6"/>
<text xml:space="preserve" text-anchor="middle" x="107.1" y="-416.7" font-family="Noto Sans CJK TC" font-size="14.00">小石獲得數值加乘</text>
<text xml:space="preserve" text-anchor="middle" x="107.1" y="-396.45" font-family="Noto Sans CJK TC" font-size="14.00">提升知識王與世界魔王表現</text>
</g>
<!-- TeamPower&#45;&gt;TeamBuff -->
<g id="edge4" class="edge">
<title>TeamPower&#45;&gt;TeamBuff</title>
<path fill="none" stroke="#333333" d="M125.1,-551.69C125.1,-551.69 125.1,-461.43 125.1,-461.43"/>
<polygon fill="#333333" stroke="#333333" points="127.9,-461.43 125.1,-453.43 122.3,-461.43 127.9,-461.43"/>
<text xml:space="preserve" text-anchor="middle" x="135.6" y="-498.55" font-family="Noto Sans CJK TC" font-size="14.00">形成加乘</text>
</g>
<!-- WorldBoss -->
<g id="node7" class="node">
<title>WorldBoss</title>
<path fill="#eadcf8" stroke="#333333" d="M578.08,-441.48C578.08,-441.48 402.12,-441.48 402.12,-441.48 396.12,-441.48 390.12,-435.48 390.12,-429.48 390.12,-429.48 390.12,-390.02 390.12,-390.02 390.12,-384.02 396.12,-378.02 402.12,-378.02 402.12,-378.02 578.08,-378.02 578.08,-378.02 584.08,-378.02 590.08,-384.02 590.08,-390.02 590.08,-390.02 590.08,-429.48 590.08,-429.48 590.08,-435.48 584.08,-441.48 578.08,-441.48"/>
<text xml:space="preserve" text-anchor="middle" x="490.1" y="-406.57" font-family="Noto Sans CJK TC" font-size="14.00" fill="#3366cc">挑戰無限生成的世界魔王</text>
</g>
<!-- BossDispatch&#45;&gt;WorldBoss -->
<g id="edge6" class="edge">
<title>BossDispatch&#45;&gt;WorldBoss</title>
<path fill="none" stroke="#333333" d="M517.1,-551.69C517.1,-551.69 517.1,-451.24 517.1,-451.24"/>
<polygon fill="#333333" stroke="#333333" points="519.9,-451.24 517.1,-443.24 514.3,-451.24 519.9,-451.24"/>
<text xml:space="preserve" text-anchor="middle" x="513.35" y="-498.55" font-family="Noto Sans CJK TC" font-size="14.00">挑戰</text>
</g>
<!-- BossReward -->
<g id="node8" class="node">
<title>BossReward</title>
<path fill="#eadcf8" stroke="#333333" d="M412.7,-257.52C412.7,-257.52 279.5,-257.52 279.5,-257.52 273.5,-257.52 267.5,-251.52 267.5,-245.52 267.5,-245.52 267.5,-206.07 267.5,-206.07 267.5,-200.07 273.5,-194.07 279.5,-194.07 279.5,-194.07 412.7,-194.07 412.7,-194.07 418.7,-194.07 424.7,-200.07 424.7,-206.07 424.7,-206.07 424.7,-245.52 424.7,-245.52 424.7,-251.52 418.7,-257.52 412.7,-257.52"/>
<text xml:space="preserve" text-anchor="middle" x="346.1" y="-222.62" font-family="Noto Sans CJK TC" font-size="14.00">獲得大量強化道具</text>
</g>
<!-- WorldBoss&#45;&gt;BossReward -->
<g id="edge7" class="edge">
<title>WorldBoss&#45;&gt;BossReward</title>
<path fill="none" stroke="#333333" d="M407.41,-377.71C407.41,-377.71 407.41,-267.3 407.41,-267.3"/>
<polygon fill="#333333" stroke="#333333" points="410.21,-267.3 407.41,-259.3 404.61,-267.3 410.21,-267.3"/>
<text xml:space="preserve" text-anchor="middle" x="458.6" y="-314.6" font-family="Noto Sans CJK TC" font-size="14.00">戰鬥結算</text>
</g>
<!-- UnlockWorld -->
<g id="node9" class="node">
<title>UnlockWorld</title>
<path fill="#eadcf8" stroke="#333333" d="M699.95,-267.65C699.95,-267.65 538.25,-267.65 538.25,-267.65 532.25,-267.65 526.25,-261.65 526.25,-255.65 526.25,-255.65 526.25,-195.95 526.25,-195.95 526.25,-189.95 532.25,-183.95 538.25,-183.95 538.25,-183.95 699.95,-183.95 699.95,-183.95 705.95,-183.95 711.95,-189.95 711.95,-195.95 711.95,-195.95 711.95,-255.65 711.95,-255.65 711.95,-261.65 705.95,-267.65 699.95,-267.65"/>
<text xml:space="preserve" text-anchor="middle" x="619.1" y="-232.75" font-family="Noto Sans CJK TC" font-size="14.00" fill="#3366cc">獲得特殊道具</text>
<text xml:space="preserve" text-anchor="middle" x="619.1" y="-212.5" font-family="Noto Sans CJK TC" font-size="14.00" fill="#3366cc">解鎖故事、新探險地點</text>
</g>
<!-- WorldBoss&#45;&gt;UnlockWorld -->
<g id="edge9" class="edge">
<title>WorldBoss&#45;&gt;UnlockWorld</title>
<path fill="none" stroke="#333333" d="M558.16,-377.71C558.16,-377.71 558.16,-277.34 558.16,-277.34"/>
<polygon fill="#333333" stroke="#333333" points="560.96,-277.34 558.16,-269.34 555.36,-277.34 560.96,-277.34"/>
<text xml:space="preserve" text-anchor="middle" x="596.6" y="-314.6" font-family="Noto Sans CJK TC" font-size="14.00">擊破階段</text>
</g>
<!-- BossReward&#45;&gt;Bag -->
<g id="edge8" class="edge">
<title>BossReward&#45;&gt;Bag</title>
<path fill="none" stroke="#333333" d="M328.81,-258.01C328.81,-371.64 328.81,-747 328.81,-747 328.81,-747 519.73,-747 519.73,-747"/>
<polygon fill="#333333" stroke="#333333" points="519.73,-749.8 527.73,-747 519.73,-744.2 519.73,-749.8"/>
<text xml:space="preserve" text-anchor="middle" x="330.6" y="-498.55" font-family="Noto Sans CJK TC" font-size="14.00">強化小石</text>
</g>
<!-- UnlockWorld&#45;&gt;Bag -->
<g id="edge10" class="edge">
<title>UnlockWorld&#45;&gt;Bag</title>
<path fill="none" stroke="#333333" d="M651.01,-267.98C651.01,-267.98 651.01,-705.79 651.01,-705.79"/>
<polygon fill="#333333" stroke="#333333" points="648.21,-705.79 651.01,-713.79 653.81,-705.79 648.21,-705.79"/>
<text xml:space="preserve" text-anchor="middle" x="735.1" y="-498.55" font-family="Noto Sans CJK TC" font-size="14.00">特殊道具與新小石</text>
</g>
<!-- Review -->
<g id="node11" class="node">
<title>Review</title>
<path fill="#efefef" stroke="#333333" d="M915.7,-451.6C915.7,-451.6 782.5,-451.6 782.5,-451.6 776.5,-451.6 770.5,-445.6 770.5,-439.6 770.5,-439.6 770.5,-379.9 770.5,-379.9 770.5,-373.9 776.5,-367.9 782.5,-367.9 782.5,-367.9 915.7,-367.9 915.7,-367.9 921.7,-367.9 927.7,-373.9 927.7,-379.9 927.7,-379.9 927.7,-439.6 927.7,-439.6 927.7,-445.6 921.7,-451.6 915.7,-451.6"/>
<text xml:space="preserve" text-anchor="middle" x="849.1" y="-416.7" font-family="Noto Sans CJK TC" font-size="14.00">結算</text>
<text xml:space="preserve" text-anchor="middle" x="849.1" y="-396.45" font-family="Noto Sans CJK TC" font-size="14.00">給出遊戲行為回顧</text>
</g>
<!-- ClearGoal&#45;&gt;Review -->
<g id="edge12" class="edge">
<title>ClearGoal&#45;&gt;Review</title>
<path fill="none" stroke="#333333" d="M836.1,-551.69C836.1,-551.69 836.1,-461.43 836.1,-461.43"/>
<polygon fill="#333333" stroke="#333333" points="838.9,-461.43 836.1,-453.43 833.3,-461.43 838.9,-461.43"/>
<text xml:space="preserve" text-anchor="middle" x="876.48" y="-498.55" font-family="Noto Sans CJK TC" font-size="14.00">破台後</text>
</g>
<!-- UnlockCraft -->
<g id="node12" class="node">
<title>UnlockCraft</title>
<path fill="#efefef" stroke="#333333" d="M936.7,-257.52C936.7,-257.52 803.5,-257.52 803.5,-257.52 797.5,-257.52 791.5,-251.52 791.5,-245.52 791.5,-245.52 791.5,-206.07 791.5,-206.07 791.5,-200.07 797.5,-194.07 803.5,-194.07 803.5,-194.07 936.7,-194.07 936.7,-194.07 942.7,-194.07 948.7,-200.07 948.7,-206.07 948.7,-206.07 948.7,-245.52 948.7,-245.52 948.7,-251.52 942.7,-257.52 936.7,-257.52"/>
<text xml:space="preserve" text-anchor="middle" x="870.1" y="-222.62" font-family="Noto Sans CJK TC" font-size="14.00">解鎖小石疊合操作</text>
</g>
<!-- Review&#45;&gt;UnlockCraft -->
<g id="edge13" class="edge">
<title>Review&#45;&gt;UnlockCraft</title>
<path fill="none" stroke="#333333" d="M859.6,-367.55C859.6,-367.55 859.6,-267.28 859.6,-267.28"/>
<polygon fill="#333333" stroke="#333333" points="862.4,-267.28 859.6,-259.28 856.8,-267.28 862.4,-267.28"/>
<text xml:space="preserve" text-anchor="middle" x="870.35" y="-314.6" font-family="Noto Sans CJK TC" font-size="14.00">解鎖</text>
</g>
<!-- CraftLoop -->
<g id="node13" class="node">
<title>CraftLoop</title>
<path fill="#efefef" stroke="#333333" d="M992.33,-83.7C992.33,-83.7 901.88,-83.7 901.88,-83.7 895.88,-83.7 889.88,-77.7 889.88,-71.7 889.88,-71.7 889.88,-12 889.88,-12 889.88,-6 895.88,0 901.88,0 901.88,0 992.33,0 992.33,0 998.33,0 1004.33,-6 1004.33,-12 1004.33,-12 1004.33,-71.7 1004.33,-71.7 1004.33,-77.7 998.33,-83.7 992.33,-83.7"/>
<text xml:space="preserve" text-anchor="middle" x="947.1" y="-48.8" font-family="Noto Sans CJK TC" font-size="14.00">反覆疊合</text>
<text xml:space="preserve" text-anchor="middle" x="947.1" y="-28.55" font-family="Noto Sans CJK TC" font-size="14.00">成為數值怪</text>
</g>
<!-- UnlockCraft&#45;&gt;CraftLoop -->
<g id="edge14" class="edge">
<title>UnlockCraft&#45;&gt;CraftLoop</title>
<path fill="none" stroke="#333333" d="M919.29,-193.76C919.29,-193.76 919.29,-93.39 919.29,-93.39"/>
<polygon fill="#333333" stroke="#333333" points="922.09,-93.39 919.29,-85.39 916.49,-93.39 922.09,-93.39"/>
<text xml:space="preserve" text-anchor="middle" x="929.6" y="-130.65" font-family="Noto Sans CJK TC" font-size="14.00">開放合成</text>
</g>
<!-- CraftLoop&#45;&gt;Bag -->
<g id="edge15" class="edge">
<title>CraftLoop&#45;&gt;Bag</title>
<path fill="none" stroke="#333333" d="M889.46,-42C823.82,-42 725.53,-42 725.53,-42 725.53,-42 725.53,-705.71 725.53,-705.71"/>
<polygon fill="#333333" stroke="#333333" points="722.73,-705.71 725.53,-713.71 728.33,-705.71 722.73,-705.71"/>
<text xml:space="preserve" text-anchor="middle" x="1101.1" y="-406.57" font-family="Noto Sans CJK TC" font-size="14.00">合成結果回到背包</text>
</g>
</g>
</svg>
